<?xml version="1.0" encoding="UTF-8" standalone="no"?>
<!-- Created with Inkscape (http://www.inkscape.org/) -->

<svg
   xmlns:dc="http://purl.org/dc/elements/1.1/"
   xmlns:cc="http://creativecommons.org/ns#"
   xmlns:rdf="http://www.w3.org/1999/02/22-rdf-syntax-ns#"
   xmlns:svg="http://www.w3.org/2000/svg"
   xmlns="http://www.w3.org/2000/svg"
   xmlns:sodipodi="http://sodipodi.sourceforge.net/DTD/sodipodi-0.dtd"
   xmlns:inkscape="http://www.inkscape.org/namespaces/inkscape"
   width="210mm"
   height="297mm"
   viewBox="0 0 744.09448819 1052.3622047"
   id="svg4179"
   version="1.1"
   inkscape:version="0.91 r13725"
   sodipodi:docname="logo-bprc.svg">
  <defs
     id="defs4181" />
  <sodipodi:namedview
     id="base"
     pagecolor="#ffffff"
     bordercolor="#666666"
     borderopacity="1.0"
     inkscape:pageopacity="0.0"
     inkscape:pageshadow="2"
     inkscape:zoom="0.35"
     inkscape:cx="-390.71429"
     inkscape:cy="520"
     inkscape:document-units="px"
     inkscape:current-layer="layer1"
     showgrid="false"
     inkscape:window-width="1920"
     inkscape:window-height="980"
     inkscape:window-x="0"
     inkscape:window-y="28"
     inkscape:window-maximized="1" />
  <metadata
     id="metadata4184">
    <rdf:RDF>
      <cc:Work
         rdf:about="">
        <dc:format>image/svg+xml</dc:format>
        <dc:type
           rdf:resource="http://purl.org/dc/dcmitype/StillImage" />
        <dc:title></dc:title>
      </cc:Work>
    </rdf:RDF>
  </metadata>
  <g
     inkscape:label="Layer 1"
     inkscape:groupmode="layer"
     id="layer1">
    <g
       style="opacity:0.97000002"
       id="g4158"
       transform="translate(-182.37665,-668.56612)">
      <path
         inkscape:connector-curvature="0"
         id="path5089"
         d="m 167.74466,1426.679 c -2.99784,-0.5371 -16.47741,-5.2719 -21.4327,-7.5284 -10.53243,-4.7963 -22.55132,-12.7322 -31.61004,-20.8716 -9.94754,-8.938 -17.968001,-18.7549 -26.554536,-32.5022 -3.423729,-5.4815 -9.631989,-19.7259 -11.362396,-26.0701 -4.177881,-15.3175 -5.347024,-24.1581 -4.865808,-36.7932 0.513295,-13.4772 2.263591,-22.1537 7.00818,-34.7407 2.67459,-7.0954 8.942791,-18.1747 11.46838,-20.2707 1.074146,-0.8915 10.17217,-3.4553 16.30671,-4.5953 3.16967,-0.589 9.46007,-0.8827 18.75776,-0.8757 15.50381,0.011 19.97615,0.6737 33.77901,5.0014 12.12563,3.8018 32.05119,14.1808 31.27134,16.289 -0.10614,0.2869 -1.82949,2.2592 -3.82966,4.3829 -5.09003,5.4043 -9.6601,11.3401 -16.45518,21.3725 -0.94856,1.4005 -3.40812,5.8356 -5.46568,9.8558 -6.15676,12.0295 -8.9267,19.1556 -11.2945,29.0571 -0.90304,3.7763 -1.7864,7.4382 -1.96302,8.1376 -0.71596,2.8352 -2.19543,18.7807 -2.19652,23.6738 -0.002,8.2484 2.85017,25.8649 5.53503,34.1891 3.52378,10.9252 9.51742,22.5802 14.88642,28.9475 1.35751,1.61 2.46821,3.1234 2.46821,3.3632 0,0.4607 -1.80643,0.4518 -4.451,-0.022 z m 58.81673,-32.9792 c -4.48118,-1.06 -4.81934,-1.1907 -11.40577,-4.4057 -6.1009,-2.9781 -12.80524,-9.0415 -15.97253,-14.4456 -2.74033,-4.6757 -5.08013,-11.935 -6.04198,-18.7455 -1.39242,-9.8592 1.02129,-23.0963 6.10575,-33.4847 5.5081,-11.254 13.01308,-19.2455 22.86353,-24.3458 7.21355,-3.735 10.88305,-4.6655 18.39628,-4.6649 5.71428,4e-4 6.81265,0.1947 10.22304,1.8081 6.37861,3.0177 10.29451,8.7402 10.95344,16.0069 0.63789,7.0348 -1.83618,13.4137 -7.28663,18.7871 -3.51718,3.4674 -6.22109,4.932 -11.11111,6.0183 -9.99494,2.2205 -18.94952,-4.2313 -18.94952,-13.6531 0,-2.0807 -0.67157,-2.0518 -2.85069,0.1226 -12.17055,12.1443 -8.65091,30.5083 7.41322,38.6792 5.93736,3.02 15.5729,3.8084 22.51269,1.8422 14.78947,-4.1903 29.24591,-18.5869 34.46462,-34.3218 2.57408,-7.7611 2.80975,-9.5067 2.54356,-18.8403 -0.22332,-7.8302 -0.50609,-9.8573 -1.97651,-14.17 -1.59298,-4.672 -3.92683,-10.0053 -5.03227,-11.4996 -8.27552,-11.1868 -16.50477,-16.6572 -28.77901,-19.131 -5.32489,-1.0731 -18.80197,-1.1825 -23.04067,-0.187 -11.5781,2.7194 -26.08455,8.8908 -32.47922,13.8174 -1.28868,0.9929 -3.63066,2.7138 -5.2044,3.8243 -1.57375,1.1106 -5.37563,4.4967 -8.44862,7.5248 -3.073,3.0281 -5.37651,4.9538 -5.11892,4.2795 0.56032,-1.4668 0.47296,-1.3495 5.17695,-6.9487 3.54456,-4.2192 13.09516,-13.8472 17.92843,-18.0737 2.74569,-2.4011 13.19061,-9.4821 17.48606,-11.8546 1.7486,-0.9658 4.09951,-2.2708 5.22423,-2.9001 3.46602,-1.939 13.84899,-6.1976 19.06602,-7.8199 10.77845,-3.3517 17.06028,-4.3348 29.73834,-4.6541 12.59645,-0.3172 19.40824,0.2636 27.8533,2.3751 9.39186,2.3482 9.31742,2.2982 11.37686,7.6372 1.01174,2.6229 2.10282,5.7704 2.42462,6.9944 0.32179,1.2241 1.1772,4.2285 1.90092,6.6765 4.02226,13.6059 5.60383,28.076 4.60099,42.0954 -0.66253,9.2619 -2.04233,18.2649 -3.29358,21.4903 -0.27135,0.6994 -1.4165,3.8469 -2.54477,6.9944 -5.60872,15.6463 -17.07608,31.8512 -28.94615,40.9049 -2.09833,1.6004 -3.95821,3.0689 -4.13307,3.2632 -0.6096,0.6776 -7.97727,4.9753 -11.89475,6.9386 -4.86255,2.4369 -11.95754,4.8513 -17.97635,6.1174 -5.80901,1.222 -20.50686,1.1925 -25.76633,-0.052 z"
         style="opacity:0.98999999;fill:#c1d62f;fill-opacity:1" />
      <text
         sodipodi:linespacing="125%"
         id="text4154"
         y="1382.5103"
         x="350.52286"
         style="font-style:normal;font-variant:normal;font-weight:normal;font-stretch:normal;font-size:96.25px;line-height:125%;font-family:'Franklin Gothic Heavy';-inkscape-font-specification:'Franklin Gothic Heavy, Normal';text-align:start;letter-spacing:0px;word-spacing:0px;writing-mode:lr-tb;text-anchor:start;fill:#015852;fill-opacity:0.97254902;stroke:none;stroke-width:1px;stroke-linecap:butt;stroke-linejoin:miter;stroke-opacity:1"
         xml:space="preserve"><tspan
           y="1382.5103"
           x="350.52286"
           id="tspan4156"
           sodipodi:role="line">Bio-Protection</tspan></text>
      <text
         sodipodi:linespacing="125%"
         id="text4158"
         y="1428.4733"
         x="354.05847"
         style="font-style:italic;font-variant:normal;font-weight:normal;font-stretch:normal;font-size:35px;line-height:125%;font-family:'Franklin Gothic Heavy';-inkscape-font-specification:'Franklin Gothic Heavy, Italic';text-align:start;letter-spacing:0px;word-spacing:0px;writing-mode:lr-tb;text-anchor:start;fill:#015852;fill-opacity:0.97254902;stroke:none;stroke-width:1px;stroke-linecap:butt;stroke-linejoin:miter;stroke-opacity:1"
         xml:space="preserve"><tspan
           y="1428.4733"
           x="354.05847"
           id="tspan4160"
           sodipodi:role="line">Bioprotection science for New Zealand</tspan></text>
    </g>
  </g>
</svg>
